<svg viewBox="0 0 512 512" xmlns="http://www.w3.org/2000/svg" role="img" aria-label="큐핏">
  <defs>
    <linearGradient id="g" x1="0" y1="0" x2="1" y2="1">
      <stop offset="0" stop-color="#9a8fd8"/>
      <stop offset="0.5" stop-color="#7c9ed4"/>
      <stop offset="1" stop-color="#5cc1bf"/>
    </linearGradient>
    <linearGradient id="gf" x1="0" y1="0" x2="1" y2="1">
      <stop offset="0" stop-color="#cfc7ef"/>
      <stop offset="0.5" stop-color="#bcd0ee"/>
      <stop offset="1" stop-color="#a9e6e2"/>
    </linearGradient>
  </defs>
  <path d="M256 448 C120 360 48 280 48 192 C48 130 96 86 156 86 C200 86 234 112 256 150 C278 112 312 86 356 86 C416 86 464 130 464 192 C464 280 392 360 256 448 Z" fill="url(#gf)" stroke="url(#g)" stroke-width="16" stroke-linejoin="round" stroke-linecap="round"/>
  <g stroke="url(#g)" stroke-width="16" stroke-linecap="round" stroke-linejoin="round">
    <line x1="95" y1="385" x2="405" y2="130"/>
    <line x1="76" y1="365" x2="124" y2="413"/>
    <line x1="90" y1="351" x2="138" y2="399"/>
  </g>
  <path d="M442 100 L423 152 L387 108 Z" fill="url(#g)"/>
</svg>
