<svg viewBox="0 0 512 512" xmlns="http://www.w3.org/2000/svg" role="img" aria-label="큐핏">
  <defs>
    <linearGradient id="g" x1="0" y1="0" x2="1" y2="1">
      <stop offset="0" stop-color="#9a8fd8"/>
      <stop offset="0.5" stop-color="#7c9ed4"/>
      <stop offset="1" stop-color="#5cc1bf"/>
    </linearGradient>
    <linearGradient id="gf" x1="0" y1="0" x2="1" y2="1">
      <stop offset="0" stop-color="#cfc7ef"/>
      <stop offset="0.5" stop-color="#bcd0ee"/>
      <stop offset="1" stop-color="#a9e6e2"/>
    </linearGradient>
  </defs>
  <path d="M256 448 C120 360 48 280 48 192 C48 130 96 86 156 86 C200 86 234 112 256 150 C278 112 312 86 356 86 C416 86 464 130 464 192 C464 280 392 360 256 448 Z" fill="url(#gf)" stroke="url(#g)" stroke-width="16" stroke-linejoin="round" stroke-linecap="round"/>
  <g stroke="url(#g)" stroke-width="16" stroke-linecap="round" stroke-linejoin="round" fill="none">
    <line x1="58" y1="418" x2="400" y2="138"/>
    <path d="M64 442 L75 406 L37 408" stroke-width="14"/>
    <path d="M92 419 L103 383 L65 385" stroke-width="14"/>
  </g>
  <path d="M456 92 L444 137 L398 140 L410 95 Z" fill="url(#g)"/>
</svg>
